<?xml version="1.0" encoding="iso-8859-1"?>
<!-- Generator: Adobe Illustrator 19.1.0, SVG Export Plug-In . SVG Version: 6.00 Build 0)  -->
<svg version="1.1" id="Capa_1" xmlns="http://www.w3.org/2000/svg" xmlns:xlink="http://www.w3.org/1999/xlink" x="0px" y="0px"
	 viewBox="0 0 64 64" style="enable-background:new 0 0 64 64;" xml:space="preserve">
<g>
	<g>
		<polygon points="45.293,15.74 61.586,32.033 45.293,48.326 46.854,49.74 64,32.74 64,31.325 46.854,14.326 		"/>
		<polygon points="17.146,14.26 0,31.26 0,32.674 17.146,49.674 18.634,48.261 2.377,31.967 18.615,15.674 		"/>
		<path d="M32,26.032c-3.309,0-6,2.691-6,6c0,3.309,2.691,6,6,6s6-2.691,6-6S35.309,26.032,32,26.032z M32,36.033
			c-2.206,0-4-1.794-4-4s1.794-4,4-4s4,1.794,4,4S34.206,36.033,32,36.033z"/>
	</g>
</g>
<g>
</g>
<g>
</g>
<g>
</g>
<g>
</g>
<g>
</g>
<g>
</g>
<g>
</g>
<g>
</g>
<g>
</g>
<g>
</g>
<g>
</g>
<g>
</g>
<g>
</g>
<g>
</g>
<g>
</g>
</svg>
